<svg width="199" height="81" fill="none" xmlns="http://www.w3.org/2000/svg"><rect x="16.5" y="17.5" width="46" height="46" rx="23" fill="#CDCDCD"/><path d="M31.48 47.18c-.96 0-1.7-.3-2.2-.88a3.74 3.74 0 0 1-.76-2.52v-10.2c0-.27.07-.47.2-.6.13-.15.33-.22.6-.22.25 0 .45.07.6.22.15.13.22.33.22.6v10.08c0 .72.14 1.26.42 1.62.3.35.72.52 1.28.52.12 0 .23 0 .32-.02l.28-.02c.15-.01.25.02.3.1.07.08.1.24.1.48s-.05.42-.16.54c-.1.12-.28.2-.52.24a25.12 25.12 0 0 1-.68.06Zm5.92 0c-.96 0-1.7-.3-2.2-.88a3.74 3.74 0 0 1-.76-2.52v-10.2c0-.27.06-.47.2-.6.13-.15.33-.22.6-.22.25 0 .45.07.6.22.14.13.22.33.22.6v10.08c0 .72.14 1.26.42 1.62.3.35.72.52 1.28.52.12 0 .22 0 .32-.02l.28-.02c.14-.01.24.02.3.1s.1.24.1.48-.06.42-.16.54c-.1.12-.28.2-.52.24a25.12 25.12 0 0 1-.68.06Z" fill="#1971C2"/><path d="M45.14 47.18a10.49 10.49 0 0 1-3.52-.62 6 6 0 0 1-1.38-.76 1.05 1.05 0 0 1-.34-.4.92.92 0 0 1-.04-.46c.04-.16.1-.3.2-.4a.6.6 0 0 1 .38-.18c.14-.01.3.03.48.14.6.43 1.24.74 1.92.94a8.7 8.7 0 0 0 2.3.28c1.2 0 2.08-.22 2.66-.66.58-.45.88-1.05.88-1.78 0-.6-.22-1.07-.64-1.4a4.85 4.85 0 0 0-2.1-.82l-2.08-.42a5.74 5.74 0 0 1-2.82-1.3 3.3 3.3 0 0 1-.92-2.44 3.75 3.75 0 0 1 1.44-3.02c.45-.37.99-.66 1.62-.86a7.36 7.36 0 0 1 4.42.06 6 6 0 0 1 1.98 1.04c.14.12.24.26.3.42.05.15.06.3.02.44a.72.72 0 0 1-.22.34c-.1.1-.22.15-.38.16a.81.81 0 0 1-.5-.16 5.34 5.34 0 0 0-1.66-.86 6.11 6.11 0 0 0-3.74.04c-.51.21-.91.53-1.2.94-.28.4-.42.87-.42 1.4 0 .64.19 1.15.58 1.52.4.37 1.04.65 1.94.82l2.08.44a6.4 6.4 0 0 1 2.98 1.28c.65.56.98 1.33.98 2.3a3.65 3.65 0 0 1-1.4 2.9c-.46.35-1 .61-1.64.8a7.7 7.7 0 0 1-2.16.28Z" fill="#FD853A"/><path d="M74.02 29.58a.45.45 0 0 1-.33-.12.52.52 0 0 1-.12-.36v-7.66c0-.16.04-.28.12-.36.08-.08.19-.12.33-.12.13 0 .23.02.3.08.08.05.16.13.22.25l3.29 6.2h-.36l3.27-6.2c.07-.12.14-.2.2-.25a.5.5 0 0 1 .32-.08c.14 0 .24.04.32.12.08.08.12.2.12.36v7.66c0 .16-.04.28-.12.36-.07.08-.18.12-.33.12a.45.45 0 0 1-.34-.12.52.52 0 0 1-.12-.36v-6.74h.29l-3 5.63a.69.69 0 0 1-.18.23.43.43 0 0 1-.25.06.43.43 0 0 1-.27-.08.6.6 0 0 1-.16-.21l-3.04-5.64h.29v6.75c0 .16-.04.28-.12.36-.07.08-.18.12-.33.12Zm11.5.03c-.4 0-.77-.08-1.09-.23a1.96 1.96 0 0 1-.74-.65 1.6 1.6 0 0 1-.28-.91c0-.43.11-.77.33-1.02.22-.25.59-.42 1.09-.53.51-.1 1.2-.15 2.09-.15h.54v.63h-.53c-.65 0-1.16.03-1.54.1-.36.05-.62.15-.78.3-.14.14-.21.35-.21.61 0 .33.11.6.33.8.24.21.55.32.94.32a1.54 1.54 0 0 0 1.42-.86c.14-.26.21-.56.21-.9v-1.38c0-.5-.1-.85-.3-1.06-.2-.23-.53-.34-.98-.34-.28 0-.56.04-.84.1-.28.08-.58.2-.89.36a.46.46 0 0 1-.29.06.36.36 0 0 1-.19-.14.42.42 0 0 1-.08-.21c-.01-.09 0-.17.04-.25a.5.5 0 0 1 .22-.2 4.74 4.74 0 0 1 2.03-.5c.5 0 .92.08 1.25.25.32.16.57.41.73.75.16.32.24.75.24 1.27v3.25c0 .16-.04.28-.12.37-.07.09-.18.13-.33.13-.15 0-.26-.04-.34-.13a.53.53 0 0 1-.12-.37v-.94h.1a1.8 1.8 0 0 1-1.03 1.28c-.26.13-.56.19-.89.19Zm6.74 0a2.5 2.5 0 0 1-1.37-.37 2.5 2.5 0 0 1-.9-1.05c-.2-.45-.3-.99-.3-1.6 0-.63.1-1.17.3-1.61a2.4 2.4 0 0 1 2.27-1.42c.53 0 .98.13 1.36.4.37.26.62.62.75 1.06h-.13v-3.57c0-.16.04-.28.12-.36a.5.5 0 0 1 .37-.13c.15 0 .27.04.35.13.09.08.13.2.13.36v7.63c0 .16-.04.28-.12.37-.08.09-.2.13-.36.13a.49.49 0 0 1-.36-.13.53.53 0 0 1-.12-.37v-1.14l.13.17c-.12.45-.38.82-.76 1.09-.38.27-.83.4-1.36.4Zm.2-.78c.36 0 .68-.09.95-.27.27-.17.48-.43.63-.76.15-.34.22-.74.22-1.22 0-.72-.16-1.28-.49-1.66a1.61 1.61 0 0 0-1.3-.58c-.37 0-.7.09-.97.26-.26.17-.47.42-.62.76-.14.33-.22.74-.22 1.22 0 .72.17 1.28.5 1.67.32.39.76.58 1.3.58Zm7.2.78c-.61 0-1.14-.12-1.6-.36-.43-.25-.78-.6-1.02-1.05a3.36 3.36 0 0 1-.36-1.6c0-.61.12-1.14.36-1.59.24-.45.56-.81.98-1.07.42-.25.91-.38 1.47-.38.39 0 .74.07 1.05.2.31.13.58.32.8.57.22.25.38.55.5.9s.18.75.18 1.19c0 .12-.04.22-.11.28a.5.5 0 0 1-.31.09h-4.18v-.64h3.95l-.2.16c0-.43-.06-.8-.19-1.1-.12-.3-.31-.53-.56-.69a1.61 1.61 0 0 0-.91-.24 1.71 1.71 0 0 0-1.68 1.07c-.14.33-.22.71-.22 1.15v.07c0 .74.18 1.3.53 1.68.36.39.87.58 1.53.58a3.04 3.04 0 0 0 1.6-.47c.1-.07.2-.1.3-.1.09 0 .16.03.22.09.05.05.1.11.1.19.03.07.02.15-.02.24a.46.46 0 0 1-.2.23 3.83 3.83 0 0 1-2 .6Zm9.8 0a2.3 2.3 0 0 1-1.36-.41 1.96 1.96 0 0 1-.75-1.1l.13-.12v1.1a.5.5 0 0 1-.14.37c-.08.09-.2.13-.34.13-.16 0-.28-.04-.36-.13a.53.53 0 0 1-.12-.37v-7.63c0-.16.04-.28.12-.36.08-.09.2-.13.36-.13.15 0 .27.04.36.13.08.08.13.2.13.36v3.57h-.14c.13-.44.39-.8.76-1.06.38-.27.83-.4 1.36-.4a2.33 2.33 0 0 1 2.26 1.42c.21.44.32.98.32 1.6 0 .62-.1 1.16-.33 1.61a2.4 2.4 0 0 1-2.25 1.42Zm-.2-.78c.37 0 .69-.09.95-.27.28-.17.48-.43.63-.76.15-.34.22-.74.22-1.22 0-.72-.16-1.28-.49-1.66a1.61 1.61 0 0 0-1.3-.58 1.66 1.66 0 0 0-1.58 1.02c-.15.33-.22.74-.22 1.22 0 .72.16 1.28.49 1.67.33.39.76.58 1.3.58Zm5.47 2.91a.42.42 0 0 1-.29-.1.42.42 0 0 1-.13-.26c-.01-.1.01-.2.06-.32l.83-1.86v.42l-2.3-5.35c-.06-.12-.07-.23-.06-.34.02-.1.07-.19.15-.25.08-.06.19-.1.33-.1.13 0 .23.03.3.09a.7.7 0 0 1 .2.3l1.96 4.82h-.32l2-4.82a.78.78 0 0 1 .2-.3.5.5 0 0 1 .3-.09c.14 0 .23.04.3.1.07.06.1.15.12.25.01.1 0 .2-.05.33l-3.07 7.1a.7.7 0 0 1-.22.3.5.5 0 0 1-.31.08Z" fill="#CDCDCD"/><path d="M74.2 45.58a.49.49 0 0 1-.36-.13.53.53 0 0 1-.12-.37v-4.66h-.76a.48.48 0 0 1-.32-.1.39.39 0 0 1-.1-.28c0-.12.03-.21.1-.28.08-.06.19-.1.32-.1h1.03l-.27.26v-.46c0-.76.19-1.34.56-1.74.37-.4.92-.63 1.64-.7l.35-.03c.11 0 .2.01.26.06.07.05.12.11.13.18.03.07.03.15.02.23a.39.39 0 0 1-.11.2.33.33 0 0 1-.2.09l-.28.02c-.49.04-.85.19-1.07.45-.22.25-.32.63-.32 1.12v.5l-.15-.17H76c.14 0 .24.03.31.1.08.06.11.15.11.27 0 .12-.03.22-.1.29-.08.06-.18.1-.32.1h-1.3v4.65c0 .34-.16.5-.49.5Zm3.7 0a.5.5 0 0 1-.37-.13.53.53 0 0 1-.12-.37v-5c0-.16.04-.28.12-.36.08-.1.2-.14.35-.14.15 0 .26.05.34.14.1.08.14.2.14.36v.97h-.12c.12-.47.37-.84.73-1.1.36-.25.8-.39 1.33-.4.12-.01.22.02.29.08.07.06.11.16.12.3 0 .14-.03.25-.1.33-.07.08-.18.12-.33.14l-.2.02c-.54.05-.96.23-1.26.53-.28.3-.43.7-.43 1.23v2.9a.5.5 0 0 1-.13.37c-.08.09-.2.13-.36.13Zm6.16.03c-.57 0-1.06-.13-1.47-.37-.42-.25-.74-.6-.98-1.05a3.6 3.6 0 0 1-.33-1.6c0-.47.06-.89.2-1.25a2.45 2.45 0 0 1 1.44-1.56c.33-.15.72-.22 1.14-.22.57 0 1.06.12 1.48.37.41.25.73.6.96 1.06.23.45.35.98.35 1.6 0 .46-.07.87-.2 1.24a2.56 2.56 0 0 1-1.45 1.57c-.33.14-.71.2-1.14.2Zm0-.78c.36 0 .68-.09.95-.27.27-.17.48-.43.62-.76.16-.34.23-.74.23-1.22 0-.72-.16-1.28-.49-1.66a1.61 1.61 0 0 0-1.3-.58c-.38 0-.7.09-.97.26-.26.17-.47.42-.62.76-.15.33-.22.74-.22 1.22 0 .72.17 1.28.5 1.67.32.39.76.58 1.3.58Zm4.73.75c-.16 0-.28-.04-.36-.13a.53.53 0 0 1-.12-.37v-5c0-.16.04-.28.12-.36.08-.1.2-.14.34-.14.16 0 .27.05.35.14.09.08.13.2.13.36v1.03l-.13-.15c.17-.46.44-.8.82-1.04.38-.24.82-.36 1.32-.36.46 0 .85.08 1.15.25.31.17.54.43.7.77.15.34.22.76.22 1.28v3.22a.5.5 0 0 1-.13.37c-.08.09-.2.13-.35.13a.5.5 0 0 1-.37-.13.53.53 0 0 1-.12-.37v-3.16c0-.54-.1-.94-.32-1.18-.21-.26-.55-.39-1.01-.39-.54 0-.96.17-1.28.5-.32.33-.47.77-.47 1.33v2.9c0 .34-.17.5-.5.5Zm8.68.03a2.5 2.5 0 0 1-1.16-.24 1.6 1.6 0 0 1-.68-.72 2.7 2.7 0 0 1-.23-1.17v-3.06h-.8c-.14 0-.24-.03-.31-.1a.39.39 0 0 1-.11-.28c0-.12.03-.21.1-.28.08-.06.18-.1.32-.1h.8V38.3c0-.16.05-.28.13-.36.1-.09.21-.13.36-.13.16 0 .27.04.35.13.1.08.13.2.13.36v1.38h1.52c.13 0 .24.03.3.1.08.06.12.15.12.27 0 .12-.04.22-.11.29-.07.06-.18.1-.31.1h-1.52v2.96c0 .45.1.8.3 1.04.18.23.5.35.93.35.15 0 .28-.02.38-.05.11-.03.2-.05.28-.05a.2.2 0 0 1 .18.08c.05.05.07.15.07.28 0 .1-.02.19-.06.27a.29.29 0 0 1-.18.17c-.1.03-.22.06-.38.08-.16.03-.3.05-.42.05Zm4.42 0c-.61 0-1.15-.12-1.6-.36-.43-.25-.78-.6-1.03-1.05a3.36 3.36 0 0 1-.36-1.6c0-.61.12-1.14.36-1.59.24-.45.57-.81.99-1.07.42-.25.91-.38 1.46-.38.4 0 .75.07 1.06.2.31.13.57.32.79.57.22.25.4.55.5.9.12.35.18.75.18 1.19 0 .12-.03.22-.1.28a.5.5 0 0 1-.32.09h-4.17v-.64h3.95l-.2.16c0-.43-.06-.8-.19-1.1-.13-.3-.31-.53-.56-.69a1.61 1.61 0 0 0-.91-.24 1.71 1.71 0 0 0-1.68 1.07c-.15.33-.22.71-.22 1.15v.07c0 .74.18 1.3.53 1.68.36.39.87.58 1.52.58a3.04 3.04 0 0 0 1.6-.47c.11-.07.21-.1.3-.1.1 0 .17.03.23.09.05.05.09.11.1.19.03.07.02.15-.02.24a.46.46 0 0 1-.2.23 3.83 3.83 0 0 1-2 .6Zm4.24-.03c-.16 0-.28-.04-.36-.13a.53.53 0 0 1-.12-.37v-5c0-.16.04-.28.12-.36.08-.1.2-.14.35-.14.15 0 .27.05.35.14.08.08.13.2.13.36v1.03l-.13-.15c.16-.46.44-.8.81-1.04.39-.24.83-.36 1.32-.36.47 0 .85.08 1.15.25.32.17.55.43.7.77.15.34.23.76.23 1.28v3.22a.5.5 0 0 1-.13.37c-.08.09-.2.13-.35.13a.5.5 0 0 1-.37-.13.53.53 0 0 1-.12-.37v-3.16c0-.54-.11-.94-.33-1.18-.2-.26-.54-.39-1-.39-.54 0-.97.17-1.29.5-.31.33-.47.77-.47 1.33v2.9c0 .34-.16.5-.49.5Zm8.56.03a2.5 2.5 0 0 1-1.37-.37 2.5 2.5 0 0 1-.9-1.05c-.2-.45-.3-.99-.3-1.6 0-.63.1-1.17.3-1.61a2.4 2.4 0 0 1 2.27-1.42c.53 0 .98.13 1.36.4.37.26.63.62.75 1.06h-.13v-3.57c0-.16.04-.28.12-.36a.5.5 0 0 1 .37-.13c.16 0 .27.04.35.13.09.08.13.2.13.36v7.63c0 .16-.04.28-.12.37-.08.09-.2.13-.36.13a.49.49 0 0 1-.36-.13.53.53 0 0 1-.12-.37v-1.14l.13.17c-.12.45-.38.82-.76 1.09-.38.27-.83.4-1.36.4Zm.2-.78c.36 0 .68-.09.95-.27.27-.17.48-.43.63-.76.15-.34.22-.74.22-1.22 0-.72-.16-1.28-.49-1.66a1.61 1.61 0 0 0-1.3-.58c-.37 0-.7.09-.97.26-.26.17-.47.42-.62.76-.14.33-.22.74-.22 1.22 0 .72.17 1.28.5 1.67.33.39.76.58 1.3.58Zm9.89.78a2.5 2.5 0 0 1-1.37-.37 2.5 2.5 0 0 1-.9-1.05c-.2-.45-.31-.99-.31-1.6 0-.63.1-1.17.31-1.61a2.4 2.4 0 0 1 2.27-1.42c.53 0 .98.13 1.36.4.37.26.62.62.75 1.06h-.13v-3.57c0-.16.04-.28.12-.36a.5.5 0 0 1 .37-.13c.15 0 .27.04.35.13.09.08.13.2.13.36v7.63c0 .16-.04.28-.12.37-.08.09-.2.13-.36.13a.49.49 0 0 1-.36-.13.53.53 0 0 1-.12-.37v-1.14l.13.17c-.12.45-.38.82-.76 1.09-.38.27-.83.4-1.36.4Zm.2-.78c.36 0 .68-.09.95-.27.27-.17.48-.43.63-.76.15-.34.22-.74.22-1.22 0-.72-.16-1.28-.49-1.66a1.61 1.61 0 0 0-1.3-.58c-.37 0-.7.09-.97.26-.26.17-.47.42-.62.76-.14.33-.22.74-.22 1.22 0 .72.17 1.28.5 1.67.32.39.76.58 1.3.58Zm7.2.78c-.61 0-1.14-.12-1.6-.36-.43-.25-.78-.6-1.02-1.05a3.36 3.36 0 0 1-.36-1.6c0-.61.12-1.14.36-1.59.24-.45.56-.81.98-1.07.43-.25.91-.38 1.47-.38.39 0 .74.07 1.05.2.31.13.58.32.8.57.22.25.38.55.5.9s.18.75.18 1.19c0 .12-.04.22-.11.28a.5.5 0 0 1-.31.09h-4.18v-.64h3.95l-.2.16c0-.43-.06-.8-.19-1.1-.12-.3-.31-.53-.56-.69a1.61 1.61 0 0 0-.91-.24 1.71 1.71 0 0 0-1.68 1.07c-.15.33-.22.71-.22 1.15v.07c0 .74.18 1.3.53 1.68.36.39.87.58 1.53.58a3.04 3.04 0 0 0 1.6-.47c.1-.07.2-.1.3-.1.09 0 .16.03.22.09.06.05.1.11.1.19.03.07.02.15-.02.24a.46.46 0 0 1-.2.23 3.83 3.83 0 0 1-2 .6Zm5.86-.03a.62.62 0 0 1-.35-.1.92.92 0 0 1-.27-.36l-2.07-4.85a.58.58 0 0 1-.06-.34c.01-.1.06-.19.14-.25.08-.06.2-.1.33-.1s.23.03.3.09a.7.7 0 0 1 .2.3l1.97 4.81h-.33l2-4.81a.7.7 0 0 1 .2-.3.5.5 0 0 1 .3-.09c.14 0 .23.04.3.1.07.06.1.15.12.25.01.1 0 .2-.05.33l-2.1 4.86a.72.72 0 0 1-.25.36c-.1.07-.23.1-.38.1Zm6.56.03c-.62 0-1.15-.12-1.6-.36-.44-.25-.78-.6-1.03-1.05a3.36 3.36 0 0 1-.36-1.6c0-.61.12-1.14.36-1.59.24-.45.56-.81.98-1.07.43-.25.91-.38 1.47-.38.39 0 .74.07 1.05.2.31.13.58.32.8.57.22.25.38.55.5.9s.18.75.18 1.19c0 .12-.04.22-.11.28a.5.5 0 0 1-.31.09h-4.18v-.64h3.95l-.2.16c0-.43-.06-.8-.19-1.1-.12-.3-.31-.53-.56-.69a1.61 1.61 0 0 0-.91-.24 1.71 1.71 0 0 0-1.68 1.07c-.15.33-.22.71-.22 1.15v.07c0 .74.18 1.3.53 1.68.36.39.87.58 1.53.58a3.04 3.04 0 0 0 1.6-.47c.1-.07.2-.1.3-.1.09 0 .16.03.22.09.06.05.1.11.1.19.03.07.02.15-.02.24a.46.46 0 0 1-.2.23 3.83 3.83 0 0 1-2 .6Zm5.53 0c-.58 0-1.02-.18-1.32-.53-.3-.35-.46-.86-.46-1.51v-6.12c0-.16.04-.28.12-.36.08-.09.2-.13.36-.13.16 0 .27.04.36.13.1.08.13.2.13.36v6.05c0 .43.09.75.26.97.17.2.43.31.76.31l.2-.01.17-.01c.08-.01.14 0 .17.06.05.04.06.14.06.28 0 .15-.03.26-.1.33-.06.07-.16.12-.3.14a15.03 15.03 0 0 1-.41.04Zm4.14 0c-.57 0-1.06-.13-1.48-.37-.41-.25-.74-.6-.97-1.05a3.6 3.6 0 0 1-.33-1.6c0-.47.06-.89.19-1.25a2.45 2.45 0 0 1 1.44-1.56c.34-.15.73-.22 1.15-.22.57 0 1.06.12 1.48.37.41.25.73.6.96 1.06.23.45.34.98.34 1.6 0 .46-.06.87-.19 1.24s-.31.69-.56.96c-.25.27-.55.47-.89.61-.34.14-.72.2-1.14.2Zm0-.78c.36 0 .68-.09.95-.27.27-.17.48-.43.62-.76.15-.34.23-.74.23-1.22 0-.72-.16-1.28-.5-1.66a1.61 1.61 0 0 0-1.3-.58c-.37 0-.69.09-.96.26-.26.17-.47.42-.62.76-.15.33-.22.74-.22 1.22 0 .72.16 1.28.5 1.67.32.39.76.58 1.3.58Zm4.72 2.91c-.16 0-.28-.04-.36-.13-.08-.08-.12-.2-.12-.36v-7.17c0-.16.04-.28.12-.36.08-.1.2-.14.35-.14.16 0 .28.05.36.14.09.08.13.2.13.36v1.14l-.13-.17c.13-.46.38-.82.76-1.08.38-.27.84-.41 1.37-.41.52 0 .97.12 1.35.37.4.24.7.59.9 1.05.22.44.33.98.33 1.6 0 .62-.11 1.16-.33 1.61-.2.45-.5.8-.89 1.05-.38.24-.84.37-1.36.37a2.3 2.3 0 0 1-1.36-.4 2.02 2.02 0 0 1-.77-1.08h.15v3.12c0 .16-.05.28-.14.36a.49.49 0 0 1-.36.13Zm2.27-2.91c.37 0 .69-.09.95-.27.27-.17.48-.43.62-.76.16-.34.23-.74.23-1.22 0-.72-.16-1.28-.49-1.66a1.61 1.61 0 0 0-1.3-.58 1.66 1.66 0 0 0-1.58 1.02c-.16.33-.23.74-.23 1.22 0 .72.17 1.28.5 1.67.32.39.76.58 1.3.58Zm6.88.78c-.62 0-1.15-.12-1.6-.36-.44-.25-.78-.6-1.03-1.05a3.36 3.36 0 0 1-.36-1.6c0-.61.12-1.14.36-1.59.24-.45.57-.81.98-1.07.43-.25.92-.38 1.47-.38.39 0 .74.07 1.05.2.32.13.58.32.8.57.22.25.39.55.5.9.12.35.18.75.18 1.19 0 .12-.04.22-.1.28a.5.5 0 0 1-.32.09h-4.18v-.64h3.95l-.19.16c0-.43-.06-.8-.2-1.1-.12-.3-.3-.53-.56-.69a1.61 1.61 0 0 0-.9-.24 1.71 1.71 0 0 0-1.68 1.07c-.15.33-.22.71-.22 1.15v.07c0 .74.17 1.3.52 1.68.36.39.87.58 1.53.58a3.04 3.04 0 0 0 1.6-.47c.1-.07.2-.1.3-.1.09 0 .17.03.22.09.06.05.1.11.11.19.02.07.02.15-.02.24a.46.46 0 0 1-.2.23 3.83 3.83 0 0 1-2 .6Zm4.25-.03a.5.5 0 0 1-.37-.13.53.53 0 0 1-.12-.37v-5c0-.16.04-.28.12-.36.08-.1.2-.14.34-.14.16 0 .27.05.35.14.09.08.13.2.13.36v.97h-.12c.13-.47.38-.84.74-1.1.36-.25.8-.39 1.33-.4.12-.01.21.02.29.08.07.06.1.16.12.3 0 .14-.03.25-.1.33-.07.08-.18.12-.34.14l-.19.02c-.54.05-.96.23-1.26.53-.29.3-.43.7-.43 1.23v2.9a.5.5 0 0 1-.13.37c-.08.09-.2.13-.36.13Zm-97.4 16.06c-.46 0-.83-.12-1.08-.38a1.55 1.55 0 0 1-.39-1.12v-8.56c0-.5.13-.86.39-1.12.25-.26.62-.38 1.09-.38.48 0 .84.12 1.08.38.26.26.39.63.39 1.12v8.56c0 .48-.12.85-.37 1.12-.25.26-.61.38-1.1.38Zm6.81 0c-.37 0-.69-.09-.96-.27-.25-.19-.47-.47-.64-.85l-2.28-5.23a1.7 1.7 0 0 1-.13-.9c.04-.27.17-.49.4-.65.23-.17.55-.26.96-.26.34 0 .61.08.81.24.22.15.41.45.58.9l1.62 4.16h-.55l1.7-4.18c.17-.43.36-.73.57-.88.22-.16.51-.24.88-.24.32 0 .58.09.77.26a1 1 0 0 1 .37.66c.04.27-.01.57-.16.9l-2.34 5.24c-.16.37-.37.65-.64.83-.25.18-.57.27-.96.27Zm7.77.04a3.7 3.7 0 0 1-1.62-.34 2.78 2.78 0 0 1-1.09-.91c-.25-.4-.38-.84-.38-1.35 0-.57.15-1.03.45-1.36.3-.33.78-.56 1.44-.7.66-.15 1.54-.22 2.64-.22h.88v1.34H91c-.42 0-.76.03-1.04.1-.27.05-.47.14-.6.27a.6.6 0 0 0-.19.46c0 .25.09.45.26.61.18.16.44.24.77.24.26 0 .5-.06.7-.18.22-.11.39-.27.51-.48.13-.2.2-.45.2-.73v-1.86c0-.38-.1-.65-.3-.81-.2-.16-.54-.24-1.02-.24a5.74 5.74 0 0 0-1.94.4c-.28.1-.53.12-.73.04a.95.95 0 0 1-.48-.38c-.1-.18-.16-.38-.16-.6.01-.2.08-.4.21-.6.14-.2.35-.34.62-.45a7.02 7.02 0 0 1 4.77-.1c.58.25 1 .64 1.28 1.16.29.51.43 1.17.43 1.98v3.23c0 .47-.1.83-.33 1.08-.23.24-.55.36-.98.36-.44 0-.77-.12-1-.36-.23-.25-.34-.6-.34-1.08v-.41l.1.22a1.87 1.87 0 0 1-1.13 1.46c-.3.14-.66.2-1.05.2Zm7.76-.04c-.44 0-.8-.12-1.04-.36-.24-.25-.36-.6-.36-1.08v-5.3c0-.45.11-.8.35-1.05.24-.24.59-.37 1.04-.37.45 0 .79.13 1.02.37.24.25.35.6.35 1.06v.75l-.17-.66c.25-.5.62-.88 1.09-1.15a3.3 3.3 0 0 1 1.63-.4c.63 0 1.14.12 1.55.37.4.23.7.6.91 1.12.2.5.3 1.14.3 1.9v3.36c0 .47-.12.83-.36 1.08-.25.24-.6.36-1.06.36-.46 0-.8-.12-1.05-.36-.25-.25-.37-.6-.37-1.08v-3.24c0-.48-.09-.83-.26-1.03-.16-.2-.4-.3-.72-.3-.42 0-.77.14-1.02.41a1.5 1.5 0 0 0-.39 1.1v3.06c0 .96-.48 1.44-1.44 1.44Zm12.28.04c-.87 0-1.63-.17-2.28-.5a3.63 3.63 0 0 1-1.52-1.42 4.25 4.25 0 0 1-.55-2.2c0-.64.1-1.2.3-1.7a3.72 3.72 0 0 1 2.26-2.11c.53-.2 1.13-.3 1.8-.3.87 0 1.63.17 2.28.5.65.33 1.15.8 1.5 1.42.37.61.55 1.34.55 2.2 0 .62-.1 1.2-.3 1.7a3.6 3.6 0 0 1-2.26 2.13c-.53.19-1.13.28-1.78.28Zm0-2.1c.3 0 .55-.07.77-.2.23-.16.4-.38.51-.66.13-.3.2-.69.2-1.16 0-.71-.14-1.22-.42-1.53a1.34 1.34 0 0 0-1.06-.48c-.28 0-.54.07-.77.2-.22.14-.4.36-.52.66-.13.29-.2.67-.2 1.15 0 .7.14 1.22.42 1.54.28.32.64.48 1.07.48Zm8.93 2.06c-.38 0-.7-.09-.96-.27-.26-.19-.47-.47-.64-.85l-2.29-5.23a1.7 1.7 0 0 1-.13-.9c.05-.27.18-.49.4-.65.24-.17.56-.26.96-.26.34 0 .62.08.82.24.21.15.4.45.58.9l1.61 4.16h-.54l1.7-4.18c.16-.43.36-.73.57-.88.21-.16.5-.24.88-.24.32 0 .58.09.77.26a1 1 0 0 1 .37.66c.04.27-.02.57-.17.9l-2.33 5.24c-.16.37-.38.65-.64.83-.26.18-.58.27-.96.27Z" fill="#1971C2"/><path d="M132.69 61.68a9.95 9.95 0 0 1-3.78-.77c-.29-.14-.5-.32-.6-.55a1.34 1.34 0 0 1 .14-1.4c.14-.2.34-.34.59-.4.24-.08.52-.05.83.1a7.08 7.08 0 0 0 2.82.6c.7 0 1.19-.1 1.47-.27.28-.2.43-.43.43-.7a.7.7 0 0 0-.3-.6c-.2-.15-.54-.28-1.04-.38l-1.88-.4a4.24 4.24 0 0 1-2.28-1.12 2.89 2.89 0 0 1-.76-2.07 3.32 3.32 0 0 1 1.31-2.67 4.7 4.7 0 0 1 1.5-.73 7.6 7.6 0 0 1 3.63-.08c.59.11 1.08.3 1.5.54.24.13.42.3.53.53.1.22.15.46.13.7a1.13 1.13 0 0 1-.84 1c-.23.05-.52 0-.84-.13a5.87 5.87 0 0 0-2.18-.42c-.4 0-.73.05-1 .14-.29.09-.5.22-.65.39a.91.91 0 0 0-.2.59c0 .22.08.42.27.58.19.15.53.27 1.03.38l1.86.4c1.03.22 1.8.6 2.32 1.1.51.52.77 1.18.77 2a3.3 3.3 0 0 1-1.3 2.66c-.41.3-.91.55-1.5.72a7.1 7.1 0 0 1-1.98.26Zm10.32 0c-.96 0-1.8-.17-2.5-.5a3.75 3.75 0 0 1-1.6-1.44 4.16 4.16 0 0 1-.56-2.2c0-.8.18-1.51.53-2.12.37-.62.86-1.1 1.47-1.44a4.32 4.32 0 0 1 2.15-.53c.59 0 1.12.1 1.6.29a3.38 3.38 0 0 1 2 2.1c.18.5.27 1.06.27 1.68 0 .2-.06.37-.18.48-.11.1-.3.14-.56.14h-4.9V56.8h3.56l-.25.2c0-.4-.06-.71-.16-.96-.11-.24-.27-.43-.48-.56-.2-.12-.46-.19-.77-.19a1.44 1.44 0 0 0-1.4.91c-.14.3-.2.68-.2 1.12v.15c0 .76.16 1.3.5 1.63.33.32.86.48 1.56.48a4.62 4.62 0 0 0 1.68-.34c.28-.1.52-.12.72-.04.2.06.36.18.47.35.11.16.18.34.19.56a1.06 1.06 0 0 1-.67 1.06 6.28 6.28 0 0 1-2.46.51Zm6.04-.04c-.47 0-.83-.12-1.08-.36-.25-.25-.37-.6-.37-1.08v-5.3c0-.45.12-.8.35-1.05.25-.24.6-.37 1.04-.37.45 0 .79.13 1.02.37.24.25.36.6.36 1.06v.65h-.16c.1-.64.37-1.14.81-1.52.45-.37 1-.57 1.67-.59.3 0 .53.07.68.24.16.16.25.47.26.91 0 .39-.08.7-.24.92-.16.22-.46.35-.91.4l-.37.03c-.57.05-.98.21-1.23.48-.26.25-.39.64-.39 1.15v2.62c0 .47-.12.83-.36 1.08-.25.24-.6.36-1.08.36Zm9.25 2.92c-.59 0-1.14-.05-1.65-.13a5.87 5.87 0 0 1-1.33-.34 1.2 1.2 0 0 1-.65-.46c-.13-.2-.19-.42-.18-.64.01-.23.07-.43.18-.61.11-.18.27-.31.46-.4.2-.07.4-.07.64.02a6.1 6.1 0 0 0 2.26.46c.65 0 1.13-.14 1.45-.42.33-.26.5-.68.5-1.26v-1h.13c-.16.44-.49.8-.98 1.1a3.2 3.2 0 0 1-1.6.41c-.7 0-1.32-.16-1.84-.48a3.42 3.42 0 0 1-1.23-1.37 4.63 4.63 0 0 1-.43-2.07c0-.6.08-1.13.25-1.61a3.11 3.11 0 0 1 1.8-2.02 3.54 3.54 0 0 1 3.05.13c.48.28.8.64.96 1.09l-.16.65v-.7c0-.46.12-.81.37-1.06.25-.24.6-.37 1.05-.37.45 0 .8.13 1.03.37.24.25.37.6.37 1.06v5.53c0 1.37-.39 2.4-1.16 3.08-.76.69-1.86 1.04-3.3 1.04Zm.11-5.36c.32 0 .6-.07.82-.21.22-.15.4-.36.53-.63.12-.27.19-.6.19-.99 0-.57-.14-1.02-.42-1.34a1.4 1.4 0 0 0-1.12-.48 1.46 1.46 0 0 0-1.34.85c-.12.26-.18.59-.18.97 0 .58.14 1.03.42 1.35.27.32.64.48 1.1.48Zm10.29 2.48c-.96 0-1.8-.17-2.5-.5a3.75 3.75 0 0 1-1.6-1.44 4.16 4.16 0 0 1-.56-2.2c0-.8.18-1.51.53-2.12.36-.62.85-1.1 1.47-1.44a4.32 4.32 0 0 1 2.15-.53c.58 0 1.12.1 1.6.29a3.38 3.38 0 0 1 2 2.1c.18.5.27 1.06.27 1.68 0 .2-.06.37-.18.48-.12.1-.3.14-.56.14h-4.9V56.8h3.56l-.26.2c0-.4-.05-.71-.16-.96-.1-.24-.27-.43-.48-.56-.2-.12-.46-.19-.77-.19a1.44 1.44 0 0 0-1.4.91c-.13.3-.2.68-.2 1.12v.15c0 .76.17 1.3.5 1.63.34.32.86.48 1.57.48a4.6 4.6 0 0 0 1.68-.34c.28-.1.51-.12.72-.04.2.06.35.18.46.35.12.16.18.34.2.56a1.06 1.06 0 0 1-.67 1.06 6.27 6.27 0 0 1-2.46.51Zm6.73 2.84c-.33 0-.6-.08-.8-.25-.2-.17-.33-.4-.38-.67-.04-.28 0-.57.14-.88l1.08-2.32v1.15l-2.74-6.26a1.61 1.61 0 0 1-.14-.9c.05-.27.2-.49.43-.65.23-.17.55-.26.96-.26.34 0 .61.08.81.24.22.15.4.45.58.9l1.6 4.16h-.55l1.7-4.18c.17-.43.36-.73.58-.88.22-.16.52-.24.9-.24.31 0 .57.09.76.26.2.16.31.38.35.66.04.27 0 .57-.14.9l-3.63 8.15c-.2.43-.4.71-.64.85-.23.15-.52.22-.87.22Z" fill="#FD853A"/></svg>