<svg width="18" height="21" viewBox="0 0 18 21" fill="none" xmlns="http://www.w3.org/2000/svg">
<path d="M17.25 4.08997H0.75" stroke="#556574" stroke-width="1.5" stroke-linecap="round" stroke-linejoin="round"/>
<path d="M6.75 8.7251V14.9051" stroke="#556574" stroke-width="1.5" stroke-linecap="round" stroke-linejoin="round"/>
<path d="M11.25 8.7251V14.9051" stroke="#556574" stroke-width="1.5" stroke-linecap="round" stroke-linejoin="round"/>
<path d="M15.75 4.08997V18.7676C15.75 18.9724 15.671 19.1689 15.5303 19.3138C15.3897 19.4587 15.1989 19.5401 15 19.5401H3C2.80109 19.5401 2.61032 19.4587 2.46967 19.3138C2.32902 19.1689 2.25 18.9724 2.25 18.7676V4.08997" stroke="#556574" stroke-width="1.5" stroke-linecap="round" stroke-linejoin="round"/>
<path d="M12.75 4.09002V2.54501C12.75 2.13525 12.592 1.74227 12.3107 1.45252C12.0294 1.16278 11.6478 1 11.25 1H6.75C6.35218 1 5.97064 1.16278 5.68934 1.45252C5.40804 1.74227 5.25 2.13525 5.25 2.54501V4.09002" stroke="#556574" stroke-width="1.5" stroke-linecap="round" stroke-linejoin="round"/>
</svg>
