<svg width="23" height="24" fill="none" xmlns="http://www.w3.org/2000/svg"><path d="M7.88.7c.66 0 1.19.54 1.19 1.21v1.22h4.76V1.9c0-.67.53-1.21 1.19-1.21.65 0 1.19.54 1.19 1.21v1.22h3.56a2.4 2.4 0 0 1 2.38 2.42v15.79a2.4 2.4 0 0 1-2.38 2.42H3.12a2.4 2.4 0 0 1-2.37-2.42V5.55a2.4 2.4 0 0 1 2.37-2.42H6.7V1.9C6.7 1.24 7.22.7 7.9.7ZM6.7 5.55H3.12V9.2h16.65V5.55h-3.56v1.22A1.2 1.2 0 0 1 15 7.98a1.2 1.2 0 0 1-1.18-1.21V5.55H9.07v1.22a1.2 1.2 0 0 1-1.19 1.21A1.2 1.2 0 0 1 6.7 6.77V5.55Zm13.08 6.07H3.12v9.72h16.65v-9.72Z" fill="#fff" fill-opacity=".87"/></svg>