<svg width="46" height="46" fill="none" xmlns="http://www.w3.org/2000/svg"><rect width="46" height="46" rx="23" fill="#CDCDCD"/><path d="M14.98 29.68c-.96 0-1.7-.3-2.2-.88a3.74 3.74 0 0 1-.76-2.52v-10.2c0-.27.07-.47.2-.6.13-.15.33-.22.6-.22.25 0 .45.07.6.22.15.13.22.33.22.6v10.08c0 .72.14 1.26.42 1.62.3.35.72.52 1.28.52.12 0 .23 0 .32-.02l.28-.02c.15-.01.25.02.3.1.07.08.1.24.1.48s-.05.42-.16.54c-.1.12-.28.2-.52.24a25.12 25.12 0 0 1-.68.06Zm5.92 0c-.96 0-1.7-.3-2.2-.88a3.74 3.74 0 0 1-.76-2.52v-10.2c0-.27.06-.47.2-.6.13-.15.33-.22.6-.22.25 0 .45.07.6.22.14.13.22.33.22.6v10.08c0 .72.14 1.26.42 1.62.3.35.72.52 1.28.52.12 0 .22 0 .32-.02l.28-.02c.14-.01.24.02.3.1s.1.24.1.48-.06.42-.16.54c-.1.12-.28.2-.52.24a25.12 25.12 0 0 1-.68.06Z" fill="#1971C2"/><path d="M28.64 29.68a10.49 10.49 0 0 1-3.52-.62 6 6 0 0 1-1.38-.76 1.05 1.05 0 0 1-.34-.4.92.92 0 0 1-.04-.46c.04-.16.1-.3.2-.4a.6.6 0 0 1 .38-.18c.14-.01.3.03.48.14.6.43 1.24.74 1.92.94a8.7 8.7 0 0 0 2.3.28c1.2 0 2.08-.22 2.66-.66.58-.45.88-1.05.88-1.78 0-.6-.22-1.07-.64-1.4a4.85 4.85 0 0 0-2.1-.82l-2.08-.42a5.74 5.74 0 0 1-2.82-1.3 3.3 3.3 0 0 1-.92-2.44 3.75 3.75 0 0 1 1.44-3.02c.45-.37.99-.66 1.62-.86a7.36 7.36 0 0 1 4.42.06 6 6 0 0 1 1.98 1.04c.14.12.24.26.3.42.05.15.06.3.02.44a.72.72 0 0 1-.22.34c-.1.1-.22.15-.38.16a.81.81 0 0 1-.5-.16 5.34 5.34 0 0 0-1.66-.86 6.11 6.11 0 0 0-3.74.04c-.51.21-.91.53-1.2.94-.28.4-.42.87-.42 1.4 0 .64.19 1.15.58 1.52.4.37 1.04.65 1.94.82l2.08.44a6.4 6.4 0 0 1 2.98 1.28c.65.56.98 1.33.98 2.3a3.65 3.65 0 0 1-1.4 2.9c-.46.35-1 .61-1.64.8a7.7 7.7 0 0 1-2.16.28Z" fill="#FD853A"/></svg>