<svg width="50" height="34" fill="none" xmlns="http://www.w3.org/2000/svg"><path d="M6.92 33.4c-2.16 0-3.8-.66-4.95-1.97C.83 30.1.27 28.21.27 25.75V2.8c0-.6.14-1.04.44-1.34.3-.33.75-.5 1.35-.5.57 0 1.02.17 1.35.5.33.3.5.75.5 1.35v22.68c0 1.62.31 2.83.94 3.64.66.78 1.62 1.17 2.88 1.17.27 0 .51-.02.72-.05.21-.02.42-.04.63-.04.33-.03.56.04.68.22.15.18.22.55.22 1.09s-.12.94-.36 1.21-.63.45-1.17.54l-.76.09c-.27.03-.53.05-.77.05Zm13.32 0c-2.16 0-3.81-.66-4.95-1.97-1.14-1.32-1.71-3.21-1.71-5.68V2.8c0-.6.15-1.04.45-1.34.3-.33.75-.5 1.35-.5.57 0 1.02.17 1.35.5.33.3.5.75.5 1.35v22.68c0 1.62.3 2.83.94 3.64.66.78 1.62 1.17 2.88 1.17.27 0 .5-.02.72-.05.2-.02.42-.04.63-.04.33-.03.55.04.67.22.15.18.23.55.23 1.09s-.12.94-.36 1.21-.63.45-1.17.54l-.77.09c-.27.03-.52.05-.76.05Z" fill="#1971C2"/><path d="M37.65 33.4a23.6 23.6 0 0 1-4.14-.35A20.5 20.5 0 0 1 29.73 32a13.5 13.5 0 0 1-3.1-1.71 2.37 2.37 0 0 1-.77-.9c-.12-.36-.15-.7-.1-1.04.1-.36.25-.66.46-.9.24-.23.52-.37.85-.4.33-.03.7.08 1.08.32 1.35.96 2.8 1.66 4.32 2.11 1.53.42 3.26.63 5.18.63 2.7 0 4.7-.5 5.98-1.48a4.82 4.82 0 0 0 1.98-4.01c0-1.35-.48-2.4-1.44-3.15-.93-.78-2.5-1.4-4.72-1.84l-4.68-.95c-2.82-.6-4.94-1.58-6.35-2.93a7.42 7.42 0 0 1-2.07-5.48 8.43 8.43 0 0 1 3.24-6.8 10.85 10.85 0 0 1 3.65-1.94c1.4-.45 2.97-.67 4.68-.67 1.89 0 3.64.27 5.26.81 1.65.51 3.14 1.29 4.46 2.34.33.27.55.59.67.95.12.33.14.66.05.99-.1.3-.26.55-.5.76-.2.21-.5.33-.85.36-.33.03-.7-.09-1.13-.36-1.2-.9-2.44-1.54-3.73-1.93a13.75 13.75 0 0 0-4.28-.63c-1.59 0-2.97.23-4.14.71A6.15 6.15 0 0 0 31.03 7c-.63.9-.94 1.95-.94 3.15 0 1.44.43 2.58 1.3 3.42.9.84 2.36 1.46 4.37 1.84l4.68 1c3.03.63 5.26 1.59 6.7 2.88a6.46 6.46 0 0 1 2.2 5.17 8.22 8.22 0 0 1-3.14 6.53 11.14 11.14 0 0 1-3.7 1.8c-1.43.41-3.05.63-4.85.63Z" fill="#FD853A"/></svg>