<svg width="24" height="22" fill="none" xmlns="http://www.w3.org/2000/svg"><g clip-path="url(#a)" fill-rule="evenodd" clip-rule="evenodd" fill="#14FF49"><path opacity=".96" d="M-.02 3.83v-.38c.2-.23.43-.27.7-.11l.91.84L5.37.73c.35-.11.57 0 .65.34a.74.74 0 0 1-.16.32L1.9 5.01a.55.55 0 0 1-.56.04L-.02 3.83Z"/><path opacity=".95" d="M-.02 11.11v-.38c.15-.16.34-.2.56-.15.35.28.7.57 1.03.88 1.24-1.12 2.48-2.24 3.7-3.37.37-.17.6-.08.7.28 0 .1-.02.18-.06.26l-4.1 3.75a.51.51 0 0 1-.52-.05c-.45-.4-.89-.8-1.31-1.22ZM7.67 9.44c.32.08.44.27.36.56a.44.44 0 0 1-.26.2c-.82.08-1.08.47-.79 1.17.26.27.59.37.98.3h14.1c.64.06 1.01-.19 1.1-.75-.11-.54-.48-.78-1.1-.7-3.78 0-7.55 0-11.33-.05-.18-.13-.23-.3-.16-.51.09-.12.2-.2.35-.22 3.85 0 7.69 0 11.53.02.78.1 1.29.47 1.53 1.14v.68c-.24.67-.75 1.05-1.53 1.14-4.98.03-9.95.03-14.92 0-.95-.13-1.46-.62-1.53-1.48.1-.91.65-1.41 1.67-1.5Z"/><path d="M9.77 10.17a.47.47 0 0 1-.37 0 .49.49 0 0 1-.21-.21c0-.4.21-.54.63-.41.2.23.18.43-.05.62Z"/><path opacity=".95" d="M7.68 17c.31.08.43.27.35.56a.44.44 0 0 1-.26.2c-.82.08-1.08.47-.79 1.17.26.27.59.37.98.3H22.1c.63.06 1-.19 1.1-.75-.12-.54-.49-.78-1.1-.7-3.79 0-7.57 0-11.35-.05-.18-.13-.24-.3-.17-.51.1-.12.21-.2.36-.22 3.85 0 7.7 0 11.54.02.78.1 1.29.47 1.53 1.14v.68c-.24.67-.75 1.05-1.53 1.14-4.98.03-9.96.03-14.94 0-.95-.13-1.46-.62-1.53-1.48.1-.91.65-1.41 1.68-1.5Z"/><path d="M9.42 17.73a.47.47 0 0 1-.37 0 .49.49 0 0 1-.21-.21c0-.4.21-.54.63-.41.2.23.18.43-.05.62Z"/><path opacity=".95" d="M7.68 2c.31.08.43.27.35.56a.44.44 0 0 1-.26.2c-.82.08-1.08.47-.79 1.17.26.27.59.37.98.3H22.1c.63.06 1-.19 1.1-.75-.12-.54-.49-.78-1.1-.7-3.79 0-7.57 0-11.35-.05-.18-.13-.24-.3-.17-.51.1-.12.21-.2.36-.22 3.85 0 7.7 0 11.54.02.78.1 1.29.47 1.53 1.14v.68c-.24.67-.75 1.05-1.53 1.14-4.98.03-9.96.03-14.94 0C6.58 4.85 6.07 4.36 6 3.5c.1-.91.65-1.41 1.68-1.5Z"/><path d="M9.42 2.73a.47.47 0 0 1-.37 0 .49.49 0 0 1-.21-.21c0-.4.21-.54.63-.41.2.23.18.43-.05.62Z"/><path opacity=".95" d="M-.02 18.44v-.39a.6.6 0 0 1 .6-.15l.99.88 3.75-3.4c.56-.13.76.06.59.57l-4.06 3.7a.6.6 0 0 1-.6-.04c-.44-.38-.86-.78-1.27-1.17Z"/></g><defs><clipPath id="a"><path fill="#fff" d="M0 0h24v21.93H0z"/></clipPath></defs></svg>