<svg width="24" height="24" fill="none" xmlns="http://www.w3.org/2000/svg"><g clip-path="url(#a)" fill="#474A55"><path d="M19.5 2H18V.5a.5.5 0 0 0-1 0V2H7V.5a.5.5 0 0 0-1 0V2H4.5A4.5 4.5 0 0 0 0 6.5v13A4.5 4.5 0 0 0 4.5 24h1a.5.5 0 0 0 0-1h-1A3.5 3.5 0 0 1 1 19.5V9h22v4.5a.5.5 0 0 0 1 0v-7A4.5 4.5 0 0 0 19.5 2ZM1 8V6.5A3.5 3.5 0 0 1 4.5 3h15A3.5 3.5 0 0 1 23 6.5V8H1Z"/><path d="M9.42 22.07a.42.42 0 0 1-.31-.11.48.48 0 0 1-.1-.32v-2.62H7.83c-.21 0-.4.02-.56.06-.15.04-.3.11-.42.22-.12.1-.23.25-.33.44L5.4 21.81a.46.46 0 0 1-.21.21.41.41 0 0 1-.46-.06.39.39 0 0 1-.11-.22.5.5 0 0 1 .07-.3l.94-1.74c.15-.29.33-.5.52-.63.2-.14.43-.21.69-.21h.26l-.06.13c-.74 0-1.32-.18-1.73-.53a1.83 1.83 0 0 1-.62-1.47c0-.44.09-.81.27-1.11.18-.3.45-.53.8-.69.35-.16.78-.24 1.28-.24h2.34c.15 0 .26.04.33.12.08.07.12.18.12.33v6.24c0 .13-.04.24-.11.32-.07.07-.17.11-.3.11Zm-2.26-3.7h1.85v-2.74H7.16c-.55 0-.96.12-1.24.35-.28.23-.42.56-.42 1.01 0 .46.14.8.42 1.04.28.23.7.34 1.24.34Zm4.75 3.7a.42.42 0 0 1-.31-.11.44.44 0 0 1-.1-.31v-4.17c0-.14.03-.24.1-.31s.18-.1.3-.1c.14 0 .23.03.3.1.07.07.1.17.1.31v1.68h2.66v-1.68c0-.14.03-.24.1-.31s.17-.1.3-.1c.13 0 .23.03.3.1.07.07.1.17.1.31v4.17c0 .13-.03.24-.1.31a.4.4 0 0 1-.3.11.4.4 0 0 1-.3-.11.44.44 0 0 1-.1-.31v-1.83H12.3v1.83c0 .13-.03.24-.1.31s-.17.11-.3.11Zm5.88-.07a.42.42 0 0 1-.31-.11.42.42 0 0 1-.11-.31v-4.02c0-.13.04-.24.1-.31a.42.42 0 0 1 .32-.11h1.95c.39 0 .7.05.95.15.24.1.43.24.55.43.12.19.18.42.18.7 0 .3-.11.57-.33.78-.21.21-.5.34-.84.38v-.13c.41.01.73.13.97.35.24.22.36.5.36.86 0 .41-.15.74-.46.98-.3.24-.74.36-1.3.36h-2.03Zm.35-.55h1.65c.32 0 .57-.07.75-.21a.75.75 0 0 0 .27-.62c0-.27-.1-.47-.27-.61a1.17 1.17 0 0 0-.75-.21h-1.65v1.65Zm0-2.2h1.56c.3 0 .53-.07.7-.21a.7.7 0 0 0 .26-.58.68.68 0 0 0-.26-.57 1.1 1.1 0 0 0-.7-.2h-1.56v1.56Z"/></g><defs><clipPath id="a"><path fill="#fff" d="M0 0h24v24H0z"/></clipPath></defs></svg>