<svg width="24" height="24" fill="none" xmlns="http://www.w3.org/2000/svg"><g clip-path="url(#a)" fill="#474A55"><path d="M19.5 2H18V.5a.5.5 0 0 0-1 0V2H7V.5a.5.5 0 0 0-1 0V2H4.5A4.5 4.5 0 0 0 0 6.5v13A4.5 4.5 0 0 0 4.5 24h1a.5.5 0 0 0 0-1h-1A3.5 3.5 0 0 1 1 19.5V9h22v4.5a.5.5 0 0 0 1 0v-7A4.5 4.5 0 0 0 19.5 2ZM1 8V6.5A3.5 3.5 0 0 1 4.5 3h15A3.5 3.5 0 0 1 23 6.5V8H1Z"/><path d="M7.83 22.09c-.65 0-1.22-.15-1.71-.44-.48-.3-.85-.72-1.12-1.26a4.39 4.39 0 0 1-.39-1.92c0-.56.07-1.06.22-1.5.15-.45.37-.82.65-1.13a2.8 2.8 0 0 1 1.01-.72c.4-.17.85-.26 1.34-.26.67 0 1.24.15 1.72.44.49.3.86.71 1.12 1.25.27.53.4 1.17.4 1.91 0 .56-.08 1.06-.23 1.51-.15.45-.37.83-.65 1.14-.28.31-.62.56-1.02.73-.4.17-.84.25-1.34.25Zm0-.73c.5 0 .93-.11 1.28-.34.35-.23.62-.56.81-.99.19-.43.28-.95.28-1.56 0-.91-.2-1.62-.62-2.12-.4-.5-.99-.76-1.75-.76-.5 0-.92.11-1.27.34-.35.23-.61.56-.8.99-.19.43-.28.94-.28 1.55 0 .9.2 1.62.62 2.13.41.5.99.76 1.73.76Zm5.05.71a.42.42 0 0 1-.31-.11.44.44 0 0 1-.1-.31v-4.14c0-.14.03-.24.1-.31a.42.42 0 0 1 .3-.11c.13 0 .23.04.3.11.07.07.1.17.1.31v1.66h.92l1.48-1.9a.42.42 0 0 1 .22-.15.31.31 0 0 1 .22 0c.07.02.13.06.17.12a.3.3 0 0 1 .07.2c0 .08-.03.16-.1.25l-1.4 1.81-.23-.26c.18.02.35.07.49.14s.27.18.4.33c.12.15.26.35.4.61l.73 1.19c.04.1.06.18.05.25-.01.07-.04.14-.1.2a.41.41 0 0 1-.21.1.36.36 0 0 1-.22-.03.5.5 0 0 1-.2-.18l-.8-1.32a2.31 2.31 0 0 0-.31-.43.79.79 0 0 0-.34-.22 1.58 1.58 0 0 0-.47-.06h-.76v1.83c0 .13-.04.24-.11.31s-.17.11-.3.11Zm6.27 0a.4.4 0 0 1-.3-.11.42.42 0 0 1-.11-.31v-3.86h-1.46c-.25 0-.38-.11-.38-.33 0-.1.03-.18.1-.23a.4.4 0 0 1 .28-.09h3.74c.25 0 .37.1.37.32 0 .1-.03.19-.1.25-.06.05-.15.08-.27.08h-1.47v3.86c0 .13-.03.24-.1.31-.06.07-.16.11-.3.11Z"/></g><g clip-path="url(#b)"><path d="M19.5 2H18V.5a.5.5 0 0 0-1 0V2H7V.5a.5.5 0 0 0-1 0V2H4.5A4.5 4.5 0 0 0 0 6.5v13A4.5 4.5 0 0 0 4.5 24h1a.5.5 0 0 0 0-1h-1A3.5 3.5 0 0 1 1 19.5V9h22v4.5a.5.5 0 0 0 1 0v-7A4.5 4.5 0 0 0 19.5 2ZM1 8V6.5A3.5 3.5 0 0 1 4.5 3h15A3.5 3.5 0 0 1 23 6.5V8H1Z" fill="#474A55"/></g><defs><clipPath id="a"><path fill="#fff" d="M0 0h24v24H0z"/></clipPath><clipPath id="b"><path fill="#fff" d="M0 0h24v24H0z"/></clipPath></defs></svg>