<svg width="24" height="24" fill="none" xmlns="http://www.w3.org/2000/svg"><g clip-path="url(#a)" fill="#474A55"><path d="M19.5 2H18V.5a.5.5 0 0 0-1 0V2H7V.5a.5.5 0 0 0-1 0V2H4.5A4.5 4.5 0 0 0 0 6.5v13A4.5 4.5 0 0 0 4.5 24h1a.5.5 0 0 0 0-1h-1A3.5 3.5 0 0 1 1 19.5V9h22v4.5a.5.5 0 0 0 1 0v-7A4.5 4.5 0 0 0 19.5 2ZM1 8V6.5A3.5 3.5 0 0 1 4.5 3h15A3.5 3.5 0 0 1 23 6.5V8H1Z"/><path d="M5.28 22.07a.42.42 0 0 1-.31-.11.48.48 0 0 1-.1-.32v-6.33c0-.14.03-.25.1-.32a.42.42 0 0 1 .31-.11c.13 0 .23.04.3.11.07.07.11.18.11.32v2.76h4.23v-2.76c0-.14.03-.25.1-.32a.42.42 0 0 1 .31-.11c.13 0 .23.04.3.11.07.07.11.18.11.32v6.33c0 .13-.04.24-.11.32-.07.07-.17.11-.3.11a.42.42 0 0 1-.31-.11.48.48 0 0 1-.1-.32v-2.86H5.69v2.86c0 .13-.03.24-.1.32-.07.07-.17.11-.31.11Zm9.16.02c-.48 0-.89-.1-1.23-.31-.35-.2-.62-.5-.81-.87a3 3 0 0 1-.28-1.34c0-.39.05-.73.16-1.04a2.04 2.04 0 0 1 1.2-1.3c.28-.12.6-.18.96-.18.47 0 .88.1 1.23.31.34.2.61.5.8.88.2.37.29.82.29 1.33 0 .39-.06.73-.16 1.04a2.13 2.13 0 0 1-1.21 1.31c-.28.11-.6.17-.95.17Zm0-.65c.3 0 .56-.07.79-.22.22-.15.4-.36.52-.64s.19-.62.19-1.01c0-.6-.14-1.07-.41-1.39a1.34 1.34 0 0 0-1.1-.48c-.3 0-.57.07-.8.22-.21.14-.39.35-.51.63-.12.27-.18.61-.18 1.02 0 .6.13 1.06.4 1.39.28.32.64.48 1.1.48Zm7.04.63c-.13 0-.22-.03-.29-.1a.41.41 0 0 1-.1-.29v-1.53h-.7c-.27 0-.5.07-.68.2-.19.13-.34.3-.45.49l-.57 1a.46.46 0 0 1-.2.2.37.37 0 0 1-.25.02.45.45 0 0 1-.2-.12.38.38 0 0 1-.12-.21.41.41 0 0 1 .06-.27l.48-.81c.11-.2.26-.37.45-.5s.38-.2.57-.2h.13v.09c-.55 0-.97-.13-1.27-.38-.3-.25-.45-.6-.45-1.06a1.3 1.3 0 0 1 .79-1.28c.27-.12.6-.18 1-.18h1.75c.14 0 .25.04.32.11s.11.18.11.31v4.12a.4.4 0 0 1-.1.29.36.36 0 0 1-.28.1Zm-1.66-2.51h1.27v-1.85h-1.27c-.4 0-.68.08-.87.25a.83.83 0 0 0-.28.67c0 .3.1.52.28.69.19.16.48.24.87.24Z"/></g><defs><clipPath id="a"><path fill="#fff" d="M0 0h24v24H0z"/></clipPath></defs></svg>