<svg width="24" height="24" fill="none" xmlns="http://www.w3.org/2000/svg"><g clip-path="url(#a)" fill="#474A55"><path d="M19.5 2H18V.5a.5.5 0 0 0-1 0V2H7V.5a.5.5 0 0 0-1 0V2H4.5A4.5 4.5 0 0 0 0 6.5v13A4.5 4.5 0 0 0 4.5 24h1a.5.5 0 0 0 0-1h-1A3.5 3.5 0 0 1 1 19.5V9h22v4.5a.5.5 0 0 0 1 0v-7A4.5 4.5 0 0 0 19.5 2ZM1 8V6.5A3.5 3.5 0 0 1 4.5 3h15A3.5 3.5 0 0 1 23 6.5V8H1Z"/><path d="M4.54 22.64a.38.38 0 0 1-.28-.1c-.06-.07-.09-.16-.09-.29v-1.53c0-.27.14-.41.41-.41h.65l-.49.14c.39-.43.67-1.02.86-1.78.19-.77.28-1.73.28-2.9V14.4c0-.15.04-.26.11-.33.08-.08.2-.12.34-.12h3.78c.14 0 .25.04.33.12.08.07.12.18.12.33v6.24l-.33-.33h.91c.13 0 .24.04.31.11s.11.17.11.3v1.53c0 .26-.12.39-.37.39-.13 0-.22-.03-.29-.1-.06-.07-.09-.16-.09-.29V21h-5.9v1.25c0 .26-.12.39-.37.39Zm1.18-2.33h4.01v-5.67H6.65v1.19c0 1.07-.08 1.97-.23 2.69a4.93 4.93 0 0 1-.7 1.79Zm9.06.78c-.51 0-.95-.1-1.33-.3a2.2 2.2 0 0 1-.86-.87 2.8 2.8 0 0 1-.3-1.34c0-.5.1-.95.3-1.32.2-.38.48-.68.82-.89.36-.21.76-.32 1.22-.32.33 0 .62.06.88.17.26.1.48.26.66.47.19.2.33.46.42.75.1.3.15.62.15.99 0 .1-.03.19-.09.24a.42.42 0 0 1-.26.07h-3.48v-.53h3.3l-.17.13c0-.36-.05-.66-.16-.91-.1-.25-.26-.45-.47-.58-.2-.13-.45-.2-.76-.2a1.43 1.43 0 0 0-1.4.89c-.12.27-.18.6-.18.96v.06c0 .61.15 1.08.44 1.4.3.32.73.48 1.27.48a2.54 2.54 0 0 0 1.33-.39.4.4 0 0 1 .25-.08c.08 0 .15.02.2.07.04.04.07.1.08.16.02.06.02.13-.02.2a.38.38 0 0 1-.17.19c-.22.16-.48.28-.78.37-.3.09-.6.13-.89.13Zm3.63-.02a.42.42 0 0 1-.3-.11.44.44 0 0 1-.1-.31v-4.14c0-.14.03-.24.1-.31a.42.42 0 0 1 .3-.11c.13 0 .23.04.3.11.07.07.1.17.1.31v1.66h.91l1.48-1.9a.42.42 0 0 1 .22-.15.31.31 0 0 1 .22 0c.08.02.13.06.17.12a.3.3 0 0 1 .07.2c0 .08-.03.16-.09.25l-1.4 1.81-.24-.26c.19.02.35.07.5.14.13.07.27.18.4.33.12.15.26.35.4.61l.72 1.19c.05.1.07.18.05.25 0 .07-.04.14-.1.2a.41.41 0 0 1-.2.1.36.36 0 0 1-.23-.03.5.5 0 0 1-.2-.18l-.79-1.32a2.31 2.31 0 0 0-.32-.43.79.79 0 0 0-.34-.22 1.58 1.58 0 0 0-.47-.06h-.76v1.83c0 .13-.03.24-.1.31s-.17.11-.3.11Z"/></g><defs><clipPath id="a"><path fill="#fff" d="M0 0h24v24H0z"/></clipPath></defs></svg>