<svg width="24" height="24" fill="none" xmlns="http://www.w3.org/2000/svg"><g clip-path="url(#a)" fill="#474A55"><path d="M19.5 2H18V.5a.5.5 0 0 0-1 0V2H7V.5a.5.5 0 0 0-1 0V2H4.5A4.5 4.5 0 0 0 0 6.5v13A4.5 4.5 0 0 0 4.5 24h1a.5.5 0 0 0 0-1h-1A3.5 3.5 0 0 1 1 19.5V9h22v4.5a.5.5 0 0 0 1 0v-7A4.5 4.5 0 0 0 19.5 2ZM1 8V6.5A3.5 3.5 0 0 1 4.5 3h15A3.5 3.5 0 0 1 23 6.5V8H1Z"/><path d="M4.27 22.07a.38.38 0 0 1-.28-.1.43.43 0 0 1-.1-.3v-6.39c0-.13.03-.23.1-.3.07-.07.16-.1.28-.1.1 0 .19.02.25.07.07.04.13.11.18.21l2.74 5.16h-.3l2.73-5.16c.05-.1.11-.17.17-.21a.42.42 0 0 1 .26-.07c.11 0 .2.03.27.1s.1.17.1.3v6.39c0 .13-.03.23-.1.3-.06.07-.15.1-.28.1a.38.38 0 0 1-.28-.1.43.43 0 0 1-.1-.3v-5.62h.24l-2.5 4.69a.57.57 0 0 1-.15.19.36.36 0 0 1-.21.05.36.36 0 0 1-.22-.06.5.5 0 0 1-.14-.18l-2.53-4.7h.24v5.63c0 .13-.03.23-.1.3-.06.07-.15.1-.27.1Zm9.62.02c-.33 0-.63-.06-.9-.19a1.63 1.63 0 0 1-.62-.54 1.33 1.33 0 0 1-.23-.76c0-.36.1-.64.27-.85.2-.2.5-.35.91-.44.43-.09 1.01-.13 1.74-.13h.45v.53h-.44c-.54 0-.96.03-1.28.08-.3.05-.52.13-.65.25-.12.12-.18.29-.18.51 0 .27.1.5.28.67.2.17.46.26.78.26a1.28 1.28 0 0 0 1.18-.71c.12-.22.18-.47.18-.76v-1.14c0-.41-.08-.71-.25-.89-.16-.19-.44-.28-.82-.28-.23 0-.46.03-.7.09a3.6 3.6 0 0 0-.74.29.38.38 0 0 1-.24.05.3.3 0 0 1-.16-.11.35.35 0 0 1-.07-.18c0-.07.01-.14.04-.21.04-.07.1-.12.18-.16a3.95 3.95 0 0 1 1.7-.42c.41 0 .76.07 1.03.21.28.13.48.34.61.62.14.27.2.63.2 1.06v2.71c0 .13-.03.24-.1.31-.06.07-.15.11-.27.11-.12 0-.22-.04-.29-.11a.44.44 0 0 1-.1-.31v-.78h.1c-.06.25-.16.47-.32.65a1.5 1.5 0 0 1-.55.42c-.22.1-.46.15-.74.15Zm4.27 1.78c-.14 0-.24-.04-.3-.11-.07-.07-.1-.17-.1-.3v-5.98c0-.13.03-.23.1-.3.06-.07.16-.11.29-.11.13 0 .23.04.3.11.07.07.1.17.1.3v.95l-.1-.14c.1-.38.31-.68.63-.9.32-.23.7-.34 1.14-.34.43 0 .8.1 1.13.31.32.2.57.49.75.87.18.37.27.82.27 1.34 0 .51-.1.96-.27 1.34-.18.37-.42.66-.74.87-.32.2-.7.31-1.14.31-.44 0-.82-.11-1.13-.33a1.69 1.69 0 0 1-.64-.9h.12v2.6c0 .13-.04.23-.11.3a.4.4 0 0 1-.3.11Zm1.89-2.43c.3 0 .57-.07.79-.22.22-.15.4-.36.52-.64s.19-.62.19-1.01c0-.6-.14-1.07-.41-1.39a1.34 1.34 0 0 0-1.1-.48 1.39 1.39 0 0 0-1.32.85c-.11.27-.17.61-.17 1.02 0 .6.13 1.06.4 1.39.28.32.64.48 1.1.48Z"/></g><defs><clipPath id="a"><path fill="#fff" d="M0 0h24v24H0z"/></clipPath></defs></svg>