<svg width="24" height="24" fill="none" xmlns="http://www.w3.org/2000/svg"><g clip-path="url(#a)" fill="#474A55"><path d="M19.5 2H18V.5a.5.5 0 0 0-1 0V2H7V.5a.5.5 0 0 0-1 0V2H4.5A4.5 4.5 0 0 0 0 6.5v13A4.5 4.5 0 0 0 4.5 24h1a.5.5 0 0 0 0-1h-1A3.5 3.5 0 0 1 1 19.5V9h22v4.5a.5.5 0 0 0 1 0v-7A4.5 4.5 0 0 0 19.5 2ZM1 8V6.5A3.5 3.5 0 0 1 4.5 3h15A3.5 3.5 0 0 1 23 6.5V8H1Z"/><path d="M4.72 22.07c-.1 0-.2-.02-.26-.07a.33.33 0 0 1-.11-.2c0-.09.01-.18.06-.29l2.75-6.26a.64.64 0 0 1 .21-.28.48.48 0 0 1 .28-.09c.1 0 .19.03.27.09.09.05.16.15.21.28l2.76 6.26c.05.1.07.2.06.29 0 .09-.04.15-.1.2a.4.4 0 0 1-.25.07.44.44 0 0 1-.29-.09.73.73 0 0 1-.18-.28l-.74-1.71.4.21h-4.3l.41-.21-.73 1.71a.88.88 0 0 1-.19.28.37.37 0 0 1-.26.09Zm2.92-6.16L6.03 19.7l-.24-.19h3.7l-.22.19-1.61-3.79h-.02Zm4.86 6.16a.42.42 0 0 1-.31-.11.44.44 0 0 1-.1-.31V17.6c0-.15.04-.27.12-.34.08-.08.19-.12.34-.12h3.32c.14 0 .26.04.34.12.08.07.12.19.12.34v4.05c0 .13-.04.24-.11.31a.4.4 0 0 1-.3.11.4.4 0 0 1-.3-.11.44.44 0 0 1-.1-.31v-3.86H12.9v3.86c0 .13-.04.24-.1.31-.07.07-.17.11-.3.11Zm5.84 1.8c-.14 0-.24-.04-.3-.11-.07-.07-.1-.17-.1-.3v-5.98c0-.13.03-.23.1-.3.06-.07.16-.11.29-.11.13 0 .23.04.3.11.07.07.1.17.1.3v.95l-.1-.14c.1-.38.31-.68.63-.9.31-.23.7-.34 1.13-.34.44 0 .81.1 1.13.31.33.2.58.49.75.87.18.37.28.82.28 1.34 0 .51-.1.96-.28 1.34-.17.37-.41.66-.73.87-.32.2-.7.31-1.14.31-.45 0-.82-.11-1.13-.33a1.69 1.69 0 0 1-.64-.9h.12v2.6c0 .13-.04.23-.11.3a.4.4 0 0 1-.3.11Zm1.89-2.43c.3 0 .57-.07.79-.22.22-.15.4-.36.52-.64s.19-.62.19-1.01c0-.6-.14-1.07-.41-1.39a1.34 1.34 0 0 0-1.1-.48 1.39 1.39 0 0 0-1.32.85c-.11.27-.17.61-.17 1.02 0 .6.13 1.06.4 1.39.28.32.64.48 1.1.48Z"/></g><defs><clipPath id="a"><path fill="#fff" d="M0 0h24v24H0z"/></clipPath></defs></svg>