<svg width="24" height="24" fill="none" xmlns="http://www.w3.org/2000/svg"><g clip-path="url(#a)" fill="#474A55"><path d="M19.5 2H18V.5a.5.5 0 0 0-1 0V2H7V.5a.5.5 0 0 0-1 0V2H4.5A4.5 4.5 0 0 0 0 6.5v13A4.5 4.5 0 0 0 4.5 24h1a.5.5 0 0 0 0-1h-1A3.5 3.5 0 0 1 1 19.5V9h22v4.5a.5.5 0 0 0 1 0v-7A4.5 4.5 0 0 0 19.5 2ZM1 8V6.5A3.5 3.5 0 0 1 4.5 3h15A3.5 3.5 0 0 1 23 6.5V8H1Z"/><path d="M3.98 21.06a.3.3 0 0 1-.12-.03.2.2 0 0 1-.1-.06.65.65 0 0 1-.05-.1.63.63 0 0 1-.01-.16v-5.09c0-.1.02-.17.08-.23.05-.06.13-.09.23-.09s.17.03.22.1c.06.05.08.12.08.22v4.53h-.17L7.6 15.5c.05-.07.1-.12.14-.15a.38.38 0 0 1 .2-.05c.06 0 .1.02.15.04l.08.1c.03.06.04.11.04.18v5.1c0 .11-.03.2-.08.26-.05.05-.12.08-.22.08s-.18-.03-.23-.08a.36.36 0 0 1-.08-.25V16.2h.17l-3.47 4.65a.8.8 0 0 1-.14.15c-.04.03-.1.05-.2.05Zm8.83.01c-.35 0-.66-.07-.93-.21a1.63 1.63 0 0 1-.63-.64c-.15-.27-.25-.6-.28-.96h-.77v1.46c0 .1-.02.19-.08.25-.05.06-.13.09-.24.09a.32.32 0 0 1-.24-.1.36.36 0 0 1-.08-.24v-3.34c0-.1.03-.18.08-.24a.32.32 0 0 1 .24-.08c.1 0 .19.03.24.08.06.06.08.14.08.24v1.35h.78c.04-.35.14-.66.3-.9.16-.26.37-.46.63-.59.26-.13.56-.2.9-.2.38 0 .7.08.98.25.28.16.5.4.64.7.16.3.24.66.24 1.07 0 .3-.05.58-.13.83a1.7 1.7 0 0 1-.97 1.05c-.22.09-.48.13-.76.13Zm0-.52c.25 0 .46-.06.63-.17.18-.12.32-.3.42-.52.1-.22.15-.49.15-.8 0-.49-.11-.86-.33-1.12-.21-.25-.5-.38-.87-.38-.24 0-.45.06-.63.18a1.1 1.1 0 0 0-.43.5c-.1.22-.14.5-.14.82 0 .48.1.85.33 1.1.22.26.5.4.87.4Zm5.8.5a.32.32 0 0 1-.23-.08.36.36 0 0 1-.08-.25v-3.09h-1.57v.5c0 .41-.02.78-.07 1.1-.03.32-.1.59-.18.82a1.7 1.7 0 0 1-.86.97.3.3 0 0 1-.2.02.32.32 0 0 1-.16-.07.38.38 0 0 1-.08-.15.3.3 0 0 1 .02-.18c.03-.06.07-.1.14-.14.16-.09.28-.2.38-.32.1-.13.18-.3.24-.48.06-.2.1-.42.12-.68.03-.26.04-.56.04-.92v-.62c0-.12.03-.21.1-.27.06-.07.15-.1.27-.1h2.09c.11 0 .2.03.27.1.06.06.1.15.1.27v3.24c0 .1-.04.19-.1.25-.05.06-.13.09-.23.09Zm1.95-.05a.34.34 0 0 1-.25-.09.34.34 0 0 1-.08-.25v-3.28c0-.1.02-.2.08-.24a.36.36 0 0 1 .24-.08c.1 0 .18.02.24.08.05.05.08.13.08.24v1.12h1.18c.5 0 .87.1 1.13.32.25.22.38.52.38.92 0 .26-.06.48-.18.68-.12.18-.29.33-.51.43-.22.1-.5.15-.82.15h-1.49Zm.31-.46H22c.3 0 .53-.07.7-.2.17-.13.25-.33.25-.6 0-.27-.08-.47-.25-.59-.17-.13-.4-.19-.7-.19h-1.12v1.58Z"/></g><defs><clipPath id="a"><path fill="#fff" d="M0 0h24v24H0z"/></clipPath></defs></svg>