<svg width="24" height="24" fill="none" xmlns="http://www.w3.org/2000/svg"><g clip-path="url(#a)" fill="#474A55"><path d="M19.5 2H18V.5a.5.5 0 0 0-1 0V2H7V.5a.5.5 0 0 0-1 0V2H4.5A4.5 4.5 0 0 0 0 6.5v13A4.5 4.5 0 0 0 4.5 24h1a.5.5 0 0 0 0-1h-1A3.5 3.5 0 0 1 1 19.5V9h22v4.5a.5.5 0 0 0 1 0v-7A4.5 4.5 0 0 0 19.5 2ZM1 8V6.5A3.5 3.5 0 0 1 4.5 3h15A3.5 3.5 0 0 1 23 6.5V8H1Z"/><path d="M4.72 21.07c-.1 0-.2-.02-.26-.07a.33.33 0 0 1-.11-.2c0-.09.01-.18.06-.29l2.75-6.26a.64.64 0 0 1 .21-.28.48.48 0 0 1 .28-.09c.1 0 .19.03.27.09.09.05.16.15.21.28l2.76 6.26c.05.1.07.2.06.29 0 .09-.04.15-.1.2a.4.4 0 0 1-.25.07.44.44 0 0 1-.29-.09.73.73 0 0 1-.18-.28l-.74-1.71.4.21h-4.3l.41-.21-.73 1.71a.88.88 0 0 1-.19.28.37.37 0 0 1-.26.09Zm2.92-6.16L6.03 18.7l-.24-.19h3.7l-.22.19-1.61-3.79h-.02ZM12.51 21a.42.42 0 0 1-.31-.11.42.42 0 0 1-.11-.31v-4.02c0-.13.03-.24.1-.31a.42.42 0 0 1 .32-.11h1.95c.38 0 .7.05.95.15.24.1.43.24.55.43.12.19.18.42.18.7 0 .3-.11.57-.33.78-.22.21-.5.34-.84.38v-.13c.4.01.73.13.97.35.24.22.36.5.36.86 0 .41-.16.74-.46.98-.31.24-.74.36-1.3.36H12.5Zm.35-.55h1.65c.32 0 .57-.07.75-.21a.75.75 0 0 0 .27-.62c0-.27-.1-.47-.27-.61a1.17 1.17 0 0 0-.75-.21h-1.65v1.65Zm0-2.2h1.56c.3 0 .53-.07.7-.21a.7.7 0 0 0 .26-.58.68.68 0 0 0-.26-.57 1.1 1.1 0 0 0-.7-.2h-1.56v1.56Zm5.1 2.82a.42.42 0 0 1-.3-.11.5.5 0 0 1-.1-.33V16.6c0-.15.03-.27.11-.34.08-.08.2-.12.34-.12h2.65c.13 0 .22.03.28.08.06.05.1.13.1.24 0 .1-.04.19-.1.25-.06.05-.15.08-.28.08h-2.3v3.84c0 .3-.13.44-.4.44Z"/></g><g clip-path="url(#b)"><path d="M19.5 2H18V.5a.5.5 0 0 0-1 0V2H7V.5a.5.5 0 0 0-1 0V2H4.5A4.5 4.5 0 0 0 0 6.5v13A4.5 4.5 0 0 0 4.5 24h1a.5.5 0 0 0 0-1h-1A3.5 3.5 0 0 1 1 19.5V9h22v4.5a.5.5 0 0 0 1 0v-7A4.5 4.5 0 0 0 19.5 2ZM1 8V6.5A3.5 3.5 0 0 1 4.5 3h15A3.5 3.5 0 0 1 23 6.5V8H1Z" fill="#474A55"/></g><defs><clipPath id="a"><path fill="#fff" d="M0 0h24v24H0z"/></clipPath><clipPath id="b"><path fill="#fff" d="M0 0h24v24H0z"/></clipPath></defs></svg>