<svg width="24" height="24" fill="none" xmlns="http://www.w3.org/2000/svg"><g clip-path="url(#a)" fill="#474A55"><path d="M19.5 2H18V.5a.5.5 0 0 0-1 0V2H7V.5a.5.5 0 0 0-1 0V2H4.5A4.5 4.5 0 0 0 0 6.5v13A4.5 4.5 0 0 0 4.5 24h1a.5.5 0 0 0 0-1h-1A3.5 3.5 0 0 1 1 19.5V9h22v4.5a.5.5 0 0 0 1 0v-7A4.5 4.5 0 0 0 19.5 2ZM1 8V6.5A3.5 3.5 0 0 1 4.5 3h15A3.5 3.5 0 0 1 23 6.5V8H1Z"/><path d="M7.92 22.09c-.7 0-1.29-.15-1.78-.44-.5-.3-.87-.71-1.14-1.25a4.41 4.41 0 0 1-.39-1.93c0-.56.07-1.06.22-1.5a2.84 2.84 0 0 1 1.7-1.85 3.83 3.83 0 0 1 2.57-.08c.37.11.7.28.97.51.09.07.14.14.17.23.03.08.04.16.01.24a.39.39 0 0 1-.12.19.3.3 0 0 1-.2.07.5.5 0 0 1-.27-.1c-.24-.2-.5-.34-.79-.43a2.99 2.99 0 0 0-2.27.2c-.37.22-.64.54-.83.97-.19.43-.28.94-.28 1.55 0 .6.1 1.13.28 1.56.19.43.46.75.83.98a3.05 3.05 0 0 0 2.27.19c.3-.1.56-.25.81-.44.1-.07.19-.1.27-.09a.3.3 0 0 1 .2.07c.05.05.09.1.11.18.03.07.03.15 0 .23a.38.38 0 0 1-.15.21c-.28.24-.61.42-.99.55a3.9 3.9 0 0 1-1.2.18Zm5.71 0c-.51 0-.96-.1-1.33-.3a2.2 2.2 0 0 1-.86-.87 2.8 2.8 0 0 1-.3-1.34c0-.5.1-.95.3-1.32.2-.38.47-.68.82-.89.35-.21.76-.32 1.22-.32.33 0 .62.06.88.17.26.1.48.26.66.47.19.2.33.46.42.75.1.3.15.62.15.99 0 .1-.03.19-.09.24a.42.42 0 0 1-.26.07h-3.48v-.53h3.3l-.17.13c0-.36-.05-.66-.16-.91-.1-.25-.26-.45-.47-.58-.2-.13-.45-.2-.76-.2a1.43 1.43 0 0 0-1.4.89c-.12.27-.18.6-.18.96v.06c0 .61.15 1.08.44 1.4.3.32.72.48 1.27.48a2.54 2.54 0 0 0 1.33-.39.4.4 0 0 1 .25-.08c.08 0 .14.02.2.07.04.04.07.1.08.16.02.06.01.13-.02.2a.38.38 0 0 1-.17.19c-.22.16-.48.28-.78.37-.3.09-.6.13-.89.13Zm3.63-.02a.42.42 0 0 1-.3-.11.44.44 0 0 1-.1-.31v-4.17c0-.14.02-.24.1-.31.06-.07.17-.1.3-.1.13 0 .22.03.3.1.06.07.1.17.1.31v1.68h2.65v-1.68c0-.14.03-.24.1-.31s.17-.1.3-.1c.13 0 .23.03.3.1.07.07.11.17.11.31v4.17c0 .13-.04.24-.1.31a.4.4 0 0 1-.3.11.4.4 0 0 1-.3-.11.44.44 0 0 1-.1-.31v-1.83h-2.66v1.83c0 .13-.03.24-.1.31s-.17.11-.3.11Z"/></g><g clip-path="url(#b)"><path d="M19.5 2H18V.5a.5.5 0 0 0-1 0V2H7V.5a.5.5 0 0 0-1 0V2H4.5A4.5 4.5 0 0 0 0 6.5v13A4.5 4.5 0 0 0 4.5 24h1a.5.5 0 0 0 0-1h-1A3.5 3.5 0 0 1 1 19.5V9h22v4.5a.5.5 0 0 0 1 0v-7A4.5 4.5 0 0 0 19.5 2ZM1 8V6.5A3.5 3.5 0 0 1 4.5 3h15A3.5 3.5 0 0 1 23 6.5V8H1Z" fill="#474A55"/></g><defs><clipPath id="a"><path fill="#fff" d="M0 0h24v24H0z"/></clipPath><clipPath id="b"><path fill="#fff" d="M0 0h24v24H0z"/></clipPath></defs></svg>